<svg width="617" height="125" viewBox="0 0 617 125" fill="none" xmlns="http://www.w3.org/2000/svg">
    <path d="M86.0071 59.2582H44.5723V42.6574H86.0071C88.4274 42.6574 90.1103 43.0845 90.9548 43.8304C91.7994 44.5763 92.3226 45.9597 92.3226 47.9806V53.9414C92.3226 56.0707 91.7994 57.4541 90.9548 58.2C90.1103 58.9459 88.4274 59.2646 86.0071 59.2646V59.2582ZM88.8497 27.0064H27V98H44.5723V74.9028H76.9562L92.3226 98H112L95.058 74.7945C101.304 73.8573 104.109 71.9193 106.422 68.7253C108.735 65.5314 109.895 60.4249 109.895 53.6099V48.2866C109.895 44.2448 109.473 41.0508 108.735 38.6028C107.998 36.1547 106.737 34.0254 104.947 32.1129C103.056 30.3023 100.951 29.0273 98.4237 28.173C95.8963 27.4271 92.7385 27 88.8497 27V27.0064Z"
          fill="white"/>
    <path d="M136.595 77.0303V27H119V76.6031C119 80.6453 119.316 83.9479 120.054 86.3962C120.792 88.9529 122.054 91.0823 123.954 92.8867C125.746 94.7994 127.854 96.0809 130.378 96.8269C132.909 97.6748 136.064 98 140.072 98H180.928C184.828 98 187.99 97.6812 190.514 96.8269C193.045 96.0809 195.153 94.8058 197.046 92.8867C198.838 91.076 200.1 88.9465 200.839 86.3962C201.577 83.9479 202 80.6453 202 76.6031V27H184.405V77.0303C184.405 79.1598 183.882 80.5433 183.036 81.2892C182.19 82.0352 180.505 82.354 178.082 82.354H142.918C140.387 82.354 138.702 82.0352 137.863 81.2892C137.017 80.5433 136.601 79.1598 136.601 77.0303H136.595Z"
          fill="white"/>
    <path d="M265.759 98V42.646H299V27H215V42.646H248.241V98H265.759Z" fill="white"/>
    <path d="M329.595 77.0303V27H312V76.6031C312 80.6453 312.316 83.9479 313.054 86.3962C313.792 88.9529 315.054 91.0823 316.954 92.8867C318.746 94.7994 320.854 96.0809 323.378 96.8269C325.909 97.6748 329.064 98 333.072 98H373.928C377.828 98 380.99 97.6812 383.514 96.8269C386.045 96.0809 388.153 94.8058 390.046 92.8867C391.838 91.076 393.1 88.9465 393.839 86.3962C394.577 83.9479 395 80.6453 395 76.6031V27H377.405V77.0303C377.405 79.1598 376.882 80.5433 376.036 81.2892C375.197 82.0352 373.505 82.354 371.082 82.354H335.918C333.387 82.354 331.702 82.0352 330.863 81.2892C330.017 80.5433 329.601 79.1598 329.601 77.0303H329.595Z"
          fill="white"/>
    <path d="M425.617 82.354V69.5834H467.266C469.692 69.5834 471.38 70.0106 472.226 70.7565C473.073 71.5025 473.597 72.886 473.597 74.9071V77.0366C473.597 79.1661 473.073 80.5497 472.226 81.2956C471.386 82.0416 469.692 82.3604 467.266 82.3604H425.617V82.354ZM425.617 55.423V42.6524H463.032C465.566 42.6524 467.253 43.0796 468.094 43.8255C468.94 44.5715 469.357 45.955 469.357 47.9761V50.1056C469.357 52.2351 468.934 53.6186 468.094 54.3646C467.253 55.1105 465.56 55.4293 463.032 55.4293H425.617V55.423ZM486.874 47.651V46.2674C486.874 39.6686 485.187 34.772 481.812 31.6862C478.438 28.6003 473.054 27 465.882 27H408V98H470.008C477.18 98 482.564 96.5081 485.938 93.4222C489.313 90.3364 491 85.4398 491 78.841V77.349C491 70.7502 489.313 66.064 485.938 63.297C485.307 62.8698 484.675 62.551 484.036 62.2322C483.405 61.9134 481.806 61.4863 480.649 61.0591C482.969 59.7839 484.555 58.0816 485.502 56.1625C486.349 54.2434 486.874 51.3744 486.874 47.6446V47.651Z"
          fill="white"/>
    <path d="M517.58 42.646H581V27H500V98H581V82.354H517.58V70.323H572.923V54.677H517.58V42.646Z" fill="white"/>
    <path d="M603.5 27C610.956 27 617 20.9558 617 13.5C617 6.04416 610.956 0 603.5 0C596.044 0 590 6.04416 590 13.5C590 20.9558 596.044 27 603.5 27Z"
          fill="#ED143B"/>
</svg>
