<svg width="271" height="33" viewBox="0 0 271 33" fill="none" xmlns="http://www.w3.org/2000/svg">
<path d="M8.17188 2.15625C11.1198 2.15625 13.2708 2.79167 14.625 4.0625C15.9792 5.32292 16.6562 7.0625 16.6562 9.28125C16.6562 10.2812 16.5052 11.2396 16.2031 12.1562C15.901 13.0625 15.4062 13.8698 14.7188 14.5781C14.0417 15.2865 13.1354 15.849 12 16.2656C10.8646 16.6719 9.46354 16.875 7.79688 16.875H5.71875V25H0.875V2.15625H8.17188ZM7.92188 6.125H5.71875V12.9062H7.3125C8.21875 12.9062 9.00521 12.7865 9.67188 12.5469C10.3385 12.3073 10.8542 11.9323 11.2188 11.4219C11.5833 10.9115 11.7656 10.2552 11.7656 9.45312C11.7656 8.32812 11.4531 7.49479 10.8281 6.95312C10.2031 6.40104 9.23438 6.125 7.92188 6.125ZM25.3594 7.53125V25H20.5938V7.53125H25.3594ZM22.9844 0.6875C23.6927 0.6875 24.3021 0.854167 24.8125 1.1875C25.3229 1.51042 25.5781 2.11979 25.5781 3.01562C25.5781 3.90104 25.3229 4.51562 24.8125 4.85938C24.3021 5.19271 23.6927 5.35938 22.9844 5.35938C22.2656 5.35938 21.651 5.19271 21.1406 4.85938C20.6406 4.51562 20.3906 3.90104 20.3906 3.01562C20.3906 2.11979 20.6406 1.51042 21.1406 1.1875C21.651 0.854167 22.2656 0.6875 22.9844 0.6875ZM40.2969 7.20312C42.1615 7.20312 43.6615 7.71354 44.7969 8.73438C45.9323 9.74479 46.5 11.3698 46.5 13.6094V25H41.7344V14.7969C41.7344 13.5469 41.5052 12.6042 41.0469 11.9688C40.599 11.3333 39.8906 11.0156 38.9219 11.0156C37.4635 11.0156 36.4688 11.5104 35.9375 12.5C35.4062 13.4896 35.1406 14.9167 35.1406 16.7812V25H30.375V7.53125H34.0156L34.6562 9.76562H34.9219C35.2969 9.16146 35.7604 8.67188 36.3125 8.29688C36.875 7.92188 37.4948 7.64583 38.1719 7.46875C38.8594 7.29167 39.5677 7.20312 40.2969 7.20312ZM61.4844 5.85938C60.5573 5.85938 59.7344 6.04167 59.0156 6.40625C58.3073 6.76042 57.7083 7.27604 57.2188 7.95312C56.7396 8.63021 56.375 9.44792 56.125 10.4062C55.875 11.3646 55.75 12.4427 55.75 13.6406C55.75 15.2552 55.9479 16.6354 56.3438 17.7812C56.75 18.9167 57.375 19.7865 58.2188 20.3906C59.0625 20.9844 60.151 21.2812 61.4844 21.2812C62.4115 21.2812 63.3385 21.1771 64.2656 20.9688C65.2031 20.7604 66.2188 20.4635 67.3125 20.0781V24.1406C66.3021 24.5573 65.3073 24.8542 64.3281 25.0312C63.349 25.2188 62.25 25.3125 61.0312 25.3125C58.6771 25.3125 56.7396 24.8281 55.2188 23.8594C53.7083 22.8802 52.5885 21.5156 51.8594 19.7656C51.1302 18.0052 50.7656 15.9531 50.7656 13.6094C50.7656 11.8802 51 10.2969 51.4688 8.85938C51.9375 7.42188 52.625 6.17708 53.5312 5.125C54.4375 4.07292 55.5573 3.26042 56.8906 2.6875C58.224 2.11458 59.7552 1.82812 61.4844 1.82812C62.6198 1.82812 63.7552 1.97396 64.8906 2.26562C66.0365 2.54688 67.1302 2.9375 68.1719 3.4375L66.6094 7.375C65.7552 6.96875 64.8958 6.61458 64.0312 6.3125C63.1667 6.01042 62.3177 5.85938 61.4844 5.85938ZM87.6875 16.2344C87.6875 17.6927 87.4896 18.9844 87.0938 20.1094C86.7083 21.2344 86.1406 22.1875 85.3906 22.9688C84.651 23.7396 83.7552 24.3229 82.7031 24.7188C81.6615 25.1146 80.4844 25.3125 79.1719 25.3125C77.9427 25.3125 76.8125 25.1146 75.7812 24.7188C74.7604 24.3229 73.8698 23.7396 73.1094 22.9688C72.3594 22.1875 71.776 21.2344 71.3594 20.1094C70.9531 18.9844 70.75 17.6927 70.75 16.2344C70.75 14.2969 71.0938 12.6562 71.7812 11.3125C72.4688 9.96875 73.4479 8.94792 74.7188 8.25C75.9896 7.55208 77.5052 7.20312 79.2656 7.20312C80.901 7.20312 82.349 7.55208 83.6094 8.25C84.8802 8.94792 85.875 9.96875 86.5938 11.3125C87.3229 12.6562 87.6875 14.2969 87.6875 16.2344ZM75.6094 16.2344C75.6094 17.3802 75.7344 18.3438 75.9844 19.125C76.2344 19.9062 76.625 20.4948 77.1562 20.8906C77.6875 21.2865 78.3802 21.4844 79.2344 21.4844C80.0781 21.4844 80.7604 21.2865 81.2812 20.8906C81.8125 20.4948 82.1979 19.9062 82.4375 19.125C82.6875 18.3438 82.8125 17.3802 82.8125 16.2344C82.8125 15.0781 82.6875 14.1198 82.4375 13.3594C82.1979 12.5885 81.8125 12.0104 81.2812 11.625C80.75 11.2396 80.0573 11.0469 79.2031 11.0469C77.9427 11.0469 77.026 11.4792 76.4531 12.3438C75.8906 13.2083 75.6094 14.5052 75.6094 16.2344ZM97.1562 25.3125C95.2083 25.3125 93.6198 24.5521 92.3906 23.0312C91.1719 21.5 90.5625 19.2552 90.5625 16.2969C90.5625 13.3073 91.1823 11.0469 92.4219 9.51562C93.6615 7.97396 95.2812 7.20312 97.2812 7.20312C98.1146 7.20312 98.849 7.31771 99.4844 7.54688C100.12 7.77604 100.667 8.08333 101.125 8.46875C101.594 8.85417 101.99 9.28646 102.312 9.76562H102.469C102.406 9.43229 102.328 8.94271 102.234 8.29688C102.151 7.64062 102.109 6.96875 102.109 6.28125V0.6875H106.891V25H103.234L102.312 22.7344H102.109C101.807 23.2135 101.427 23.651 100.969 24.0469C100.521 24.4323 99.9844 24.7396 99.3594 24.9688C98.7344 25.1979 98 25.3125 97.1562 25.3125ZM98.8281 21.5156C100.13 21.5156 101.047 21.1302 101.578 20.3594C102.12 19.5781 102.406 18.4062 102.438 16.8438V16.3281C102.438 14.6302 102.177 13.3333 101.656 12.4375C101.135 11.5312 100.167 11.0781 98.75 11.0781C97.6979 11.0781 96.875 11.5312 96.2812 12.4375C95.6875 13.3438 95.3906 14.651 95.3906 16.3594C95.3906 18.0677 95.6875 19.3542 96.2812 20.2188C96.8854 21.0833 97.7344 21.5156 98.8281 21.5156ZM119.078 7.20312C120.693 7.20312 122.083 7.51562 123.25 8.14062C124.417 8.75521 125.318 9.65104 125.953 10.8281C126.589 12.0052 126.906 13.4427 126.906 15.1406V17.4531H115.641C115.693 18.7969 116.094 19.8542 116.844 20.625C117.604 21.3854 118.656 21.7656 120 21.7656C121.115 21.7656 122.135 21.651 123.062 21.4219C123.99 21.1927 124.943 20.849 125.922 20.3906V24.0781C125.057 24.5052 124.151 24.8177 123.203 25.0156C122.266 25.2135 121.125 25.3125 119.781 25.3125C118.031 25.3125 116.479 24.9896 115.125 24.3438C113.781 23.6979 112.724 22.7135 111.953 21.3906C111.193 20.0677 110.812 18.401 110.812 16.3906C110.812 14.349 111.156 12.651 111.844 11.2969C112.542 9.93229 113.51 8.91146 114.75 8.23438C115.99 7.54688 117.432 7.20312 119.078 7.20312ZM119.109 10.5938C118.182 10.5938 117.411 10.8906 116.797 11.4844C116.193 12.0781 115.844 13.0104 115.75 14.2812H122.438C122.427 13.5729 122.297 12.9427 122.047 12.3906C121.807 11.8385 121.443 11.401 120.953 11.0781C120.474 10.7552 119.859 10.5938 119.109 10.5938Z" fill="#0DEBCC"/>
<path d="M130.109 22.7656C130.109 21.7865 130.375 21.099 130.906 20.7031C131.448 20.3073 132.099 20.1094 132.859 20.1094C133.599 20.1094 134.234 20.3073 134.766 20.7031C135.307 21.099 135.578 21.7865 135.578 22.7656C135.578 23.7031 135.307 24.3802 134.766 24.7969C134.234 25.2135 133.599 25.4219 132.859 25.4219C132.099 25.4219 131.448 25.2135 130.906 24.7969C130.375 24.3802 130.109 23.7031 130.109 22.7656ZM153.766 18.6562C153.766 20.0104 153.438 21.1875 152.781 22.1875C152.125 23.1875 151.167 23.9583 149.906 24.5C148.656 25.0417 147.135 25.3125 145.344 25.3125C144.552 25.3125 143.776 25.2604 143.016 25.1562C142.266 25.0521 141.542 24.901 140.844 24.7031C140.156 24.4948 139.5 24.2396 138.875 23.9375V19.4375C139.958 19.9167 141.083 20.349 142.25 20.7344C143.417 21.1198 144.573 21.3125 145.719 21.3125C146.51 21.3125 147.146 21.2083 147.625 21C148.115 20.7917 148.469 20.5052 148.688 20.1406C148.906 19.776 149.016 19.3594 149.016 18.8906C149.016 18.3177 148.823 17.8281 148.438 17.4219C148.052 17.0156 147.521 16.6354 146.844 16.2812C146.177 15.9271 145.422 15.5469 144.578 15.1406C144.047 14.8906 143.469 14.5885 142.844 14.2344C142.219 13.8698 141.625 13.4271 141.062 12.9062C140.5 12.3854 140.036 11.7552 139.672 11.0156C139.318 10.2656 139.141 9.36979 139.141 8.32812C139.141 6.96354 139.453 5.79688 140.078 4.82812C140.703 3.85938 141.594 3.11979 142.75 2.60938C143.917 2.08854 145.292 1.82812 146.875 1.82812C148.062 1.82812 149.193 1.96875 150.266 2.25C151.349 2.52083 152.479 2.91667 153.656 3.4375L152.094 7.20312C151.042 6.77604 150.099 6.44792 149.266 6.21875C148.432 5.97917 147.583 5.85938 146.719 5.85938C146.115 5.85938 145.599 5.95833 145.172 6.15625C144.745 6.34375 144.422 6.61458 144.203 6.96875C143.984 7.3125 143.875 7.71354 143.875 8.17188C143.875 8.71354 144.031 9.17188 144.344 9.54688C144.667 9.91146 145.146 10.2656 145.781 10.6094C146.427 10.9531 147.229 11.3542 148.188 11.8125C149.354 12.3646 150.349 12.9427 151.172 13.5469C152.005 14.1406 152.646 14.8438 153.094 15.6562C153.542 16.4583 153.766 17.4583 153.766 18.6562ZM171.891 25L170.547 18.8906C170.474 18.526 170.354 17.9896 170.188 17.2812C170.021 16.5625 169.839 15.7969 169.641 14.9844C169.453 14.1615 169.276 13.401 169.109 12.7031C168.953 12.0052 168.839 11.4948 168.766 11.1719H168.625C168.552 11.4948 168.438 12.0052 168.281 12.7031C168.125 13.401 167.948 14.1615 167.75 14.9844C167.562 15.8073 167.385 16.5833 167.219 17.3125C167.052 18.0312 166.927 18.5781 166.844 18.9531L165.438 25H160.312L155.344 7.53125H160.094L162.109 15.2656C162.245 15.8073 162.375 16.4531 162.5 17.2031C162.625 17.9427 162.734 18.6615 162.828 19.3594C162.932 20.0469 163.01 20.5938 163.062 21H163.188C163.208 20.6979 163.25 20.2969 163.312 19.7969C163.385 19.2969 163.464 18.7812 163.547 18.25C163.641 17.7083 163.724 17.224 163.797 16.7969C163.88 16.3594 163.943 16.0625 163.984 15.9062L166.141 7.53125H171.391L173.438 15.9062C173.51 16.2083 173.604 16.6875 173.719 17.3438C173.844 18 173.953 18.6771 174.047 19.375C174.141 20.0625 174.193 20.6042 174.203 21H174.328C174.37 20.6458 174.443 20.1198 174.547 19.4219C174.651 18.724 174.771 17.9948 174.906 17.2344C175.052 16.4635 175.198 15.8073 175.344 15.2656L177.438 7.53125H182.109L177.078 25H171.891ZM192.094 7.17188C194.438 7.17188 196.234 7.68229 197.484 8.70312C198.734 9.72396 199.359 11.276 199.359 13.3594V25H196.031L195.109 22.625H194.984C194.484 23.25 193.974 23.7604 193.453 24.1562C192.932 24.5521 192.333 24.8438 191.656 25.0312C190.979 25.2188 190.156 25.3125 189.188 25.3125C188.156 25.3125 187.229 25.1146 186.406 24.7188C185.594 24.3229 184.953 23.7188 184.484 22.9062C184.016 22.0833 183.781 21.0417 183.781 19.7812C183.781 17.9271 184.432 16.5625 185.734 15.6875C187.036 14.8021 188.99 14.3125 191.594 14.2188L194.625 14.125V13.3594C194.625 12.4427 194.385 11.7708 193.906 11.3438C193.427 10.9167 192.76 10.7031 191.906 10.7031C191.062 10.7031 190.234 10.8229 189.422 11.0625C188.609 11.3021 187.797 11.6042 186.984 11.9688L185.406 8.75C186.333 8.26042 187.37 7.875 188.516 7.59375C189.672 7.3125 190.865 7.17188 192.094 7.17188ZM194.625 16.9062L192.781 16.9688C191.24 17.0104 190.167 17.2865 189.562 17.7969C188.969 18.3073 188.672 18.9792 188.672 19.8125C188.672 20.5417 188.885 21.0625 189.312 21.375C189.74 21.6771 190.297 21.8281 190.984 21.8281C192.005 21.8281 192.865 21.526 193.562 20.9219C194.271 20.3177 194.625 19.4583 194.625 18.3438V16.9062ZM209.391 32.6875C206.953 32.6875 205.089 32.2604 203.797 31.4062C202.516 30.5625 201.875 29.375 201.875 27.8438C201.875 26.7917 202.203 25.9115 202.859 25.2031C203.516 24.4948 204.479 23.9896 205.75 23.6875C205.26 23.4792 204.833 23.1406 204.469 22.6719C204.104 22.1927 203.922 21.6875 203.922 21.1562C203.922 20.4896 204.115 19.9375 204.5 19.5C204.885 19.0521 205.443 18.6146 206.172 18.1875C205.255 17.7917 204.526 17.1562 203.984 16.2812C203.453 15.4062 203.188 14.375 203.188 13.1875C203.188 11.9167 203.464 10.8385 204.016 9.95312C204.578 9.05729 205.391 8.375 206.453 7.90625C207.526 7.4375 208.828 7.20312 210.359 7.20312C210.682 7.20312 211.057 7.22396 211.484 7.26562C211.911 7.30729 212.302 7.35417 212.656 7.40625C213.021 7.45833 213.266 7.5 213.391 7.53125H219.484V9.95312L216.75 10.6562C217 11.0417 217.188 11.4531 217.312 11.8906C217.438 12.3281 217.5 12.7917 217.5 13.2812C217.5 15.1562 216.844 16.6198 215.531 17.6719C214.229 18.7135 212.417 19.2344 210.094 19.2344C209.542 19.2031 209.021 19.1615 208.531 19.1094C208.292 19.2969 208.109 19.4948 207.984 19.7031C207.859 19.9115 207.797 20.1302 207.797 20.3594C207.797 20.5885 207.891 20.7812 208.078 20.9375C208.276 21.0833 208.568 21.1979 208.953 21.2812C209.349 21.3542 209.839 21.3906 210.422 21.3906H213.391C215.307 21.3906 216.766 21.8021 217.766 22.625C218.776 23.4479 219.281 24.6562 219.281 26.25C219.281 28.2917 218.427 29.875 216.719 31C215.021 32.125 212.578 32.6875 209.391 32.6875ZM209.594 29.5781C210.729 29.5781 211.703 29.4688 212.516 29.25C213.339 29.0417 213.969 28.7396 214.406 28.3438C214.844 27.9583 215.062 27.4948 215.062 26.9531C215.062 26.5156 214.932 26.1667 214.672 25.9062C214.422 25.6562 214.036 25.4792 213.516 25.375C213.005 25.2708 212.349 25.2188 211.547 25.2188H209.078C208.495 25.2188 207.969 25.3125 207.5 25.5C207.042 25.6875 206.677 25.9479 206.406 26.2812C206.135 26.625 206 27.0208 206 27.4688C206 28.125 206.312 28.6406 206.938 29.0156C207.573 29.3906 208.458 29.5781 209.594 29.5781ZM210.359 16.3281C211.255 16.3281 211.911 16.0521 212.328 15.5C212.745 14.9479 212.953 14.1979 212.953 13.25C212.953 12.1979 212.734 11.4115 212.297 10.8906C211.87 10.3594 211.224 10.0938 210.359 10.0938C209.484 10.0938 208.828 10.3594 208.391 10.8906C207.953 11.4115 207.734 12.1979 207.734 13.25C207.734 14.1979 207.948 14.9479 208.375 15.5C208.812 16.0521 209.474 16.3281 210.359 16.3281ZM227.484 32.6875C225.047 32.6875 223.182 32.2604 221.891 31.4062C220.609 30.5625 219.969 29.375 219.969 27.8438C219.969 26.7917 220.297 25.9115 220.953 25.2031C221.609 24.4948 222.573 23.9896 223.844 23.6875C223.354 23.4792 222.927 23.1406 222.562 22.6719C222.198 22.1927 222.016 21.6875 222.016 21.1562C222.016 20.4896 222.208 19.9375 222.594 19.5C222.979 19.0521 223.536 18.6146 224.266 18.1875C223.349 17.7917 222.62 17.1562 222.078 16.2812C221.547 15.4062 221.281 14.375 221.281 13.1875C221.281 11.9167 221.557 10.8385 222.109 9.95312C222.672 9.05729 223.484 8.375 224.547 7.90625C225.62 7.4375 226.922 7.20312 228.453 7.20312C228.776 7.20312 229.151 7.22396 229.578 7.26562C230.005 7.30729 230.396 7.35417 230.75 7.40625C231.115 7.45833 231.359 7.5 231.484 7.53125H237.578V9.95312L234.844 10.6562C235.094 11.0417 235.281 11.4531 235.406 11.8906C235.531 12.3281 235.594 12.7917 235.594 13.2812C235.594 15.1562 234.938 16.6198 233.625 17.6719C232.323 18.7135 230.51 19.2344 228.188 19.2344C227.635 19.2031 227.115 19.1615 226.625 19.1094C226.385 19.2969 226.203 19.4948 226.078 19.7031C225.953 19.9115 225.891 20.1302 225.891 20.3594C225.891 20.5885 225.984 20.7812 226.172 20.9375C226.37 21.0833 226.661 21.1979 227.047 21.2812C227.443 21.3542 227.932 21.3906 228.516 21.3906H231.484C233.401 21.3906 234.859 21.8021 235.859 22.625C236.87 23.4479 237.375 24.6562 237.375 26.25C237.375 28.2917 236.521 29.875 234.812 31C233.115 32.125 230.672 32.6875 227.484 32.6875ZM227.688 29.5781C228.823 29.5781 229.797 29.4688 230.609 29.25C231.432 29.0417 232.062 28.7396 232.5 28.3438C232.938 27.9583 233.156 27.4948 233.156 26.9531C233.156 26.5156 233.026 26.1667 232.766 25.9062C232.516 25.6562 232.13 25.4792 231.609 25.375C231.099 25.2708 230.443 25.2188 229.641 25.2188H227.172C226.589 25.2188 226.062 25.3125 225.594 25.5C225.135 25.6875 224.771 25.9479 224.5 26.2812C224.229 26.625 224.094 27.0208 224.094 27.4688C224.094 28.125 224.406 28.6406 225.031 29.0156C225.667 29.3906 226.552 29.5781 227.688 29.5781ZM228.453 16.3281C229.349 16.3281 230.005 16.0521 230.422 15.5C230.839 14.9479 231.047 14.1979 231.047 13.25C231.047 12.1979 230.828 11.4115 230.391 10.8906C229.964 10.3594 229.318 10.0938 228.453 10.0938C227.578 10.0938 226.922 10.3594 226.484 10.8906C226.047 11.4115 225.828 12.1979 225.828 13.25C225.828 14.1979 226.042 14.9479 226.469 15.5C226.906 16.0521 227.568 16.3281 228.453 16.3281ZM247.672 7.20312C249.286 7.20312 250.677 7.51562 251.844 8.14062C253.01 8.75521 253.911 9.65104 254.547 10.8281C255.182 12.0052 255.5 13.4427 255.5 15.1406V17.4531H244.234C244.286 18.7969 244.688 19.8542 245.438 20.625C246.198 21.3854 247.25 21.7656 248.594 21.7656C249.708 21.7656 250.729 21.651 251.656 21.4219C252.583 21.1927 253.536 20.849 254.516 20.3906V24.0781C253.651 24.5052 252.745 24.8177 251.797 25.0156C250.859 25.2135 249.719 25.3125 248.375 25.3125C246.625 25.3125 245.073 24.9896 243.719 24.3438C242.375 23.6979 241.318 22.7135 240.547 21.3906C239.786 20.0677 239.406 18.401 239.406 16.3906C239.406 14.349 239.75 12.651 240.438 11.2969C241.135 9.93229 242.104 8.91146 243.344 8.23438C244.583 7.54688 246.026 7.20312 247.672 7.20312ZM247.703 10.5938C246.776 10.5938 246.005 10.8906 245.391 11.4844C244.786 12.0781 244.438 13.0104 244.344 14.2812H251.031C251.021 13.5729 250.891 12.9427 250.641 12.3906C250.401 11.8385 250.036 11.401 249.547 11.0781C249.068 10.7552 248.453 10.5938 247.703 10.5938ZM269.125 7.20312C269.365 7.20312 269.641 7.21875 269.953 7.25C270.276 7.27083 270.536 7.30208 270.734 7.34375L270.375 11.8125C270.219 11.7604 269.995 11.724 269.703 11.7031C269.422 11.6719 269.177 11.6562 268.969 11.6562C268.354 11.6562 267.755 11.7344 267.172 11.8906C266.599 12.0469 266.083 12.3021 265.625 12.6562C265.167 13 264.802 13.4583 264.531 14.0312C264.271 14.5938 264.141 15.2865 264.141 16.1094V25H259.375V7.53125H262.984L263.688 10.4688H263.922C264.266 9.875 264.693 9.33333 265.203 8.84375C265.724 8.34375 266.312 7.94792 266.969 7.65625C267.635 7.35417 268.354 7.20312 269.125 7.20312Z" fill="white"/>
</svg>
